<svg width="166.699" height="71.096" viewBox="0 0 166.699 71.096" xmlns="http://www.w3.org/2000/svg"><g id="svgGroup" stroke-linecap="round" fill-rule="evenodd" font-size="9pt" stroke="#000" stroke-width="0.25mm" fill="#000" style="stroke:#000;stroke-width:0.25mm;fill:#000"><path d="M 66.895 0 L 66.895 71.094 L 112.012 71.094 L 112.012 63.379 L 76.27 63.379 L 76.27 38.281 L 107.031 38.281 L 107.031 30.566 L 76.27 30.566 L 76.27 7.715 L 111.523 7.715 L 111.523 0 L 66.895 0 Z M 123.633 0 L 123.633 71.094 L 166.699 71.094 L 166.699 63.379 L 133.008 63.379 L 133.008 0 L 123.633 0 Z M 0 0 L 0 71.094 L 21.094 71.094 A 34.031 34.031 0 0 0 32.908 69.109 A 30.248 30.248 0 0 0 43.872 62.061 A 30.109 30.109 0 0 0 52.258 45.872 A 43.286 43.286 0 0 0 52.979 37.793 L 52.979 33.301 A 41.196 41.196 0 0 0 51.701 22.76 A 29.592 29.592 0 0 0 43.872 9.033 A 30.786 30.786 0 0 0 22.365 0.02 A 40.438 40.438 0 0 0 21.094 0 L 0 0 Z M 21.094 63.379 L 9.375 63.379 L 9.375 7.715 L 21.094 7.715 A 24.995 24.995 0 0 1 28.468 8.75 A 19.526 19.526 0 0 1 37.427 14.502 A 22.563 22.563 0 0 1 42.3 23.639 Q 43.261 27.076 43.456 31.171 A 44.76 44.76 0 0 1 43.506 33.301 L 43.506 37.793 Q 43.506 47.187 39.787 53.386 A 20.93 20.93 0 0 1 37.427 56.592 A 20.053 20.053 0 0 1 24.271 63.205 A 28.193 28.193 0 0 1 21.094 63.379 Z" vector-effect="non-scaling-stroke"/></g></svg>