<svg width="237.402" height="74.027" viewBox="0 0 237.402 74.027" xmlns="http://www.w3.org/2000/svg"><g id="svgGroup" stroke-linecap="round" fill-rule="evenodd" font-size="9pt" stroke="#000" stroke-width="0.25mm" fill="#000" style="stroke:#000;stroke-width:0.25mm;fill:#000"><path d="M 125.977 52.541 L 125.977 53.127 A 21.196 21.196 0 0 0 127.123 60.251 A 17.928 17.928 0 0 0 133.057 68.41 A 24.694 24.694 0 0 0 142.338 72.912 Q 146.637 74.025 151.855 74.025 A 39.644 39.644 0 0 0 159.335 73.362 Q 163.659 72.531 167.077 70.658 A 21.543 21.543 0 0 0 170.41 68.41 A 18.658 18.658 0 0 0 175.483 62.114 A 18.377 18.377 0 0 0 177.246 54.006 A 23.922 23.922 0 0 0 176.635 48.431 A 15.741 15.741 0 0 0 172.07 40.383 Q 166.895 35.549 155.469 32.326 Q 144.677 29.282 140.811 26.718 A 11.172 11.172 0 0 1 140.381 26.418 A 8.844 8.844 0 0 1 137.663 23.301 Q 136.793 21.594 136.725 19.459 A 11.464 11.464 0 0 1 136.719 19.094 A 11.856 11.856 0 0 1 137.261 15.42 A 9.502 9.502 0 0 1 140.283 10.988 A 10.934 10.934 0 0 1 143.671 9.116 Q 146.688 8.044 151.082 8.011 A 37.405 37.405 0 0 1 151.367 8.01 Q 156.273 8.01 159.599 9.485 A 11.46 11.46 0 0 1 162.695 11.477 A 11.477 11.477 0 0 1 166.455 19.352 A 15.801 15.801 0 0 1 166.504 20.607 L 166.504 21.193 L 175.879 21.193 L 175.879 20.607 A 19.783 19.783 0 0 0 174.225 12.431 A 19.183 19.183 0 0 0 169.238 5.813 A 22.545 22.545 0 0 0 159.734 0.961 Q 156.405 0.122 152.496 0.017 A 42.087 42.087 0 0 0 151.367 0.002 Q 142.817 0.002 137.097 3.2 A 19.623 19.623 0 0 0 133.789 5.52 A 18.402 18.402 0 0 0 129.028 11.733 A 18 18 0 0 0 127.441 19.338 A 22.816 22.816 0 0 0 128 24.543 Q 128.911 28.432 131.307 31.158 A 14.165 14.165 0 0 0 132.275 32.155 Q 137.109 36.672 148.73 40.041 Q 159.912 43.264 163.94 46.193 A 10.06 10.06 0 0 1 166.622 49.013 Q 167.916 51.098 167.967 53.786 A 11.679 11.679 0 0 1 167.969 54.006 A 11.237 11.237 0 0 1 167.057 58.591 Q 166.023 60.933 163.818 62.697 A 13.563 13.563 0 0 1 159.486 64.967 Q 157.565 65.591 155.235 65.844 A 31.292 31.292 0 0 1 151.855 66.018 Q 144.043 66.018 139.697 62.795 A 10.419 10.419 0 0 1 135.606 56.06 A 16.053 16.053 0 0 1 135.352 53.127 L 135.352 52.541 L 125.977 52.541 Z M 182.324 1.467 L 182.324 9.182 L 205.176 9.182 L 205.176 72.561 L 214.551 72.561 L 214.551 9.182 L 237.402 9.182 L 237.402 1.467 L 182.324 1.467 Z M 0 1.467 L 0 72.561 L 9.375 72.561 L 9.375 44.729 L 23.535 44.729 Q 32.169 44.729 37.861 41.481 A 19.029 19.029 0 0 0 41.553 38.747 A 19.939 19.939 0 0 0 47.682 26.102 A 27.623 27.623 0 0 0 47.852 23 A 24.534 24.534 0 0 0 46.89 15.963 A 19.027 19.027 0 0 0 41.553 7.351 A 20.426 20.426 0 0 0 33.402 2.781 Q 29.074 1.467 23.535 1.467 L 0 1.467 Z M 55.908 34.768 L 55.908 39.26 Q 55.908 52.006 60.992 60.39 A 28.192 28.192 0 0 0 64.331 64.846 A 27.768 27.768 0 0 0 84.611 74.002 A 36.855 36.855 0 0 0 85.937 74.025 A 30.848 30.848 0 0 0 96.908 72.141 A 27.476 27.476 0 0 0 107.544 64.846 Q 115.212 56.489 115.899 42.144 A 60.254 60.254 0 0 0 115.967 39.26 L 115.967 34.768 Q 115.967 22.021 110.883 13.637 A 28.192 28.192 0 0 0 107.544 9.182 A 27.768 27.768 0 0 0 87.264 0.026 A 36.855 36.855 0 0 0 85.938 0.002 A 30.848 30.848 0 0 0 74.967 1.887 A 27.476 27.476 0 0 0 64.331 9.182 Q 56.663 17.538 55.976 31.884 A 60.254 60.254 0 0 0 55.908 34.768 Z M 65.381 39.26 L 65.381 34.768 A 44.732 44.732 0 0 1 66.017 26.975 Q 66.764 22.758 68.388 19.376 A 22.488 22.488 0 0 1 71.021 15.139 A 17.876 17.876 0 0 1 83.952 8.095 A 22.697 22.697 0 0 1 85.938 8.01 A 19.469 19.469 0 0 1 93.568 9.461 A 18.307 18.307 0 0 1 100.854 15.139 Q 106.494 22.268 106.494 34.768 L 106.494 39.26 A 44.732 44.732 0 0 1 105.858 47.052 Q 105.111 51.269 103.487 54.651 A 22.488 22.488 0 0 1 100.854 58.889 A 17.876 17.876 0 0 1 87.923 65.932 A 22.697 22.697 0 0 1 85.937 66.018 A 19.469 19.469 0 0 1 78.307 64.566 A 18.307 18.307 0 0 1 71.021 58.889 Q 65.381 51.76 65.381 39.26 Z M 23.535 37.014 L 9.375 37.014 L 9.375 9.182 L 23.535 9.182 A 27.18 27.18 0 0 1 27.594 9.462 Q 32.718 10.239 35.156 13.161 A 14.201 14.201 0 0 1 38.34 20.697 A 18.837 18.837 0 0 1 38.477 23 A 17.16 17.16 0 0 1 37.747 28.102 A 14.279 14.279 0 0 1 35.156 32.937 A 9.69 9.69 0 0 1 31.211 35.759 Q 29.579 36.426 27.515 36.738 A 26.677 26.677 0 0 1 23.535 37.014 Z" vector-effect="non-scaling-stroke"/></g></svg>