<svg width="173.145" height="72.56" viewBox="0 0 173.145 72.56" xmlns="http://www.w3.org/2000/svg"><g id="svgGroup" stroke-linecap="round" fill-rule="evenodd" font-size="9pt" stroke="#000" stroke-width="0.25mm" fill="#000" style="stroke:#000;stroke-width:0.25mm;fill:#000"><path d="M 57.861 0 L 57.861 48.145 Q 57.861 60.352 65.356 66.455 A 27.066 27.066 0 0 0 80.156 72.394 A 35.205 35.205 0 0 0 83.594 72.559 A 31.427 31.427 0 0 0 92.951 71.218 A 26.263 26.263 0 0 0 101.831 66.455 A 19.506 19.506 0 0 0 108.441 55.816 Q 109.271 52.558 109.323 48.666 A 39.128 39.128 0 0 0 109.326 48.145 L 109.326 0 L 99.951 0 L 99.951 48.145 A 24.229 24.229 0 0 1 99.532 52.808 Q 99.009 55.473 97.832 57.523 A 11.973 11.973 0 0 1 95.435 60.498 A 15.466 15.466 0 0 1 88.098 64.114 A 22.133 22.133 0 0 1 83.594 64.551 A 21.534 21.534 0 0 1 78.398 63.957 A 15.288 15.288 0 0 1 71.753 60.498 A 12.694 12.694 0 0 1 68.164 54.795 Q 67.497 52.718 67.31 50.191 A 27.678 27.678 0 0 1 67.236 48.145 L 67.236 0 L 57.861 0 Z M 118.066 0 L 118.066 7.715 L 140.918 7.715 L 140.918 71.094 L 150.293 71.094 L 150.293 7.715 L 173.145 7.715 L 173.145 0 L 118.066 0 Z M 0 0 L 0 71.094 L 9.375 71.094 L 9.375 43.262 L 23.535 43.262 Q 32.169 43.262 37.861 40.015 A 19.029 19.029 0 0 0 41.553 37.28 A 19.939 19.939 0 0 0 47.682 24.636 A 27.623 27.623 0 0 0 47.852 21.533 A 24.534 24.534 0 0 0 46.89 14.496 A 19.027 19.027 0 0 0 41.553 5.884 A 20.426 20.426 0 0 0 33.402 1.314 Q 29.074 0 23.535 0 L 0 0 Z M 23.535 35.547 L 9.375 35.547 L 9.375 7.715 L 23.535 7.715 A 27.18 27.18 0 0 1 27.594 7.996 Q 32.718 8.772 35.156 11.694 A 14.201 14.201 0 0 1 38.34 19.23 A 18.837 18.837 0 0 1 38.477 21.533 A 17.16 17.16 0 0 1 37.747 26.635 A 14.279 14.279 0 0 1 35.156 31.47 A 9.69 9.69 0 0 1 31.211 34.292 Q 29.579 34.959 27.515 35.271 A 26.677 26.677 0 0 1 23.535 35.547 Z" vector-effect="non-scaling-stroke"/></g></svg>