<svg width="176.075" height="74.026" viewBox="0 0 176.075 74.026" xmlns="http://www.w3.org/2000/svg"><g id="svgGroup" stroke-linecap="round" fill-rule="evenodd" font-size="9pt" stroke="#000" stroke-width="0.25mm" fill="#000" style="stroke:#000;stroke-width:0.25mm;fill:#000"><path d="M 0.001 34.767 L 0.001 39.26 Q 0.001 52.006 5.085 60.39 A 28.192 28.192 0 0 0 8.424 64.846 Q 16.847 74.025 31.007 74.025 A 49.354 49.354 0 0 0 38.102 73.542 Q 42.962 72.835 46.876 71.096 Q 51.428 69.073 54.42 66.817 A 20.496 20.496 0 0 0 56.788 64.748 L 56.788 37.014 L 30.031 37.014 L 30.031 44.728 L 47.706 44.728 L 47.706 61.33 Q 44.191 63.771 40.284 64.894 A 26.856 26.856 0 0 1 36.444 65.682 Q 33.944 66.017 31.007 66.017 A 23.64 23.64 0 0 1 24.233 65.097 A 17.901 17.901 0 0 1 15.114 58.889 Q 9.474 51.76 9.474 39.26 L 9.474 34.767 A 44.732 44.732 0 0 1 10.11 26.975 Q 10.857 22.758 12.481 19.376 A 22.488 22.488 0 0 1 15.114 15.139 A 17.907 17.907 0 0 1 28.083 8.095 A 22.924 22.924 0 0 1 30.079 8.01 A 24.601 24.601 0 0 1 35.205 8.511 Q 38.403 9.193 40.828 10.8 A 13.895 13.895 0 0 1 42.872 12.453 A 18.543 18.543 0 0 1 45.363 15.416 Q 47.413 18.499 47.413 21.779 L 47.413 22.267 L 56.788 22.267 L 56.74 21.73 A 23.086 23.086 0 0 0 49.83 7.186 A 29.631 29.631 0 0 0 49.098 6.472 Q 42.586 0.33 31.388 0.019 A 43.518 43.518 0 0 0 30.177 0.002 A 31.523 31.523 0 0 0 19.452 1.759 A 27.373 27.373 0 0 0 8.424 9.182 Q 0.756 17.538 0.069 31.884 A 60.254 60.254 0 0 0 0.001 34.767 Z M 71.388 1.467 L 71.388 72.56 L 116.505 72.56 L 116.505 64.846 L 80.763 64.846 L 80.763 39.748 L 111.525 39.748 L 111.525 32.033 L 80.763 32.033 L 80.763 9.182 L 116.017 9.182 L 116.017 1.467 L 71.388 1.467 Z M 120.997 1.467 L 120.997 9.182 L 143.849 9.182 L 143.849 72.56 L 153.224 72.56 L 153.224 9.182 L 176.075 9.182 L 176.075 1.467 L 120.997 1.467 Z" vector-effect="non-scaling-stroke"/></g></svg>